<svg xmlns="http://www.w3.org/2000/svg" width="48.998" height="52.241" viewBox="0 0 48.998 52.241"><g transform="translate(0)"><path d="M493.479,724.992h-.612a3.827,3.827,0,0,0-.413-.267q-11.466-5.537-22.94-11.057a1.282,1.282,0,0,1-.84-1.331q.027-13.466,0-26.932a1.282,1.282,0,0,1,.841-1.331q11.48-5.506,22.939-11.057a3.882,3.882,0,0,0,.413-.267h.612a3.6,3.6,0,0,0,.371.237q11.488,5.55,22.983,11.084a1.285,1.285,0,0,1,.839,1.334q-.029,13.492,0,26.984a1.224,1.224,0,0,1-.792,1.261q-11.2,5.384-22.385,10.8C494.148,724.614,493.816,724.81,493.479,724.992Zm.46-2.009c.168-.068.231-.089.29-.117q10.781-5.2,21.565-10.4c.315-.152.34-.35.34-.638q-.007-12.575,0-25.15c0-.142-.014-.283-.022-.453-.116.043-.18.062-.239.09-2.156,1.04-4.309,2.087-6.472,3.112-.3.141-.32.336-.32.6,0,2.823-.007,5.646.011,8.469a1.122,1.122,0,0,1-.716,1.156c-1.737.815-3.46,1.659-5.189,2.49-.892.428-1.357.13-1.357-.872,0-2.806-.007-5.612.007-8.418a.618.618,0,0,0-.407-.659q-11.13-5.357-22.255-10.723a.912.912,0,0,0-.693,0c-2.3,1.089-4.593,2.2-6.886,3.31-.095.046-.184.1-.322.184.194.1.326.172.462.237l14.356,6.933c.566.273,1.137.536,1.692.829a.758.758,0,0,1,.361,1,.774.774,0,0,1-1,.378,4.648,4.648,0,0,1-.462-.215l-15.916-7.687c-.163-.079-.332-.146-.549-.24v.407q0,12.626-.012,25.253c0,.4.19.518.477.657q10.1,4.864,20.187,9.737c.485.234.971.466,1.539.738V710.019c0-4.2-.006-8.4.01-12.6a.693.693,0,0,0-.487-.766c-.5-.2-.987-.454-1.47-.7a.778.778,0,0,1-.424-1.055.77.77,0,0,1,1.092-.311,15.294,15.294,0,0,1,1.465.713,1.1,1.1,0,0,0,1.179-.006c1.487-.746,2.992-1.458,4.491-2.18.152-.073.331-.209.466-.178a1.565,1.565,0,0,1,.811.362.637.637,0,0,1-.135.912,2.031,2.031,0,0,1-.481.28c-1.482.719-2.956,1.455-4.454,2.139a.813.813,0,0,0-.541.885q.02,12.4.01,24.794Zm21.17-38.005c-.147-.085-.2-.122-.264-.151q-10.683-5.159-21.372-10.306a.855.855,0,0,0-.646.028c-1.72.81-3.428,1.644-5.139,2.471l-.814.394c.157.093.238.15.325.192q10.659,5.148,21.326,10.281a.863.863,0,0,0,.645-.05c1.536-.722,3.06-1.469,4.588-2.208C514.183,685.422,514.609,685.218,515.109,684.978Zm-8.095,3.909c-.282-.143-.458-.236-.638-.322q-10.182-4.915-20.356-9.846a1.748,1.748,0,0,0-1.825,0c-1.133.627-2.324,1.147-3.568,1.749,1.336.646,2.587,1.253,3.838,1.857q8.83,4.261,17.664,8.513a.885.885,0,0,0,.647.078C504.163,690.276,505.533,689.6,507.014,688.887Zm-3.629,11.435c.182-.075.321-.125.454-.189,1.1-.528,2.2-1.069,3.306-1.583a.61.61,0,0,0,.411-.653c-.018-2.345-.009-4.691-.01-7.036,0-.145-.016-.29-.027-.483-.169.067-.293.109-.41.165-1.117.536-2.227,1.086-3.351,1.607a.609.609,0,0,0-.413.652c.017,2.345.008,4.691.01,7.036C503.354,699.983,503.372,700.129,503.385,700.321Z" transform="translate(-468.674 -672.75)"/><path d="M501.023,905.912c-.023.8-.6,1.1-1.2.811-1.455-.692-2.9-1.4-4.354-2.1-.687-.332-1.378-.658-2.062-1-.52-.256-.7-.636-.514-1.053.2-.453.628-.585,1.161-.33,2.141,1.027,4.284,2.051,6.411,3.106A2.169,2.169,0,0,1,501.023,905.912Z" transform="translate(-489.532 -870.912)"/><path d="M493.394,928.134c.293.112.456.16.607.233,1.054.5,2.108,1.009,3.157,1.523.551.27.726.659.519,1.092s-.642.536-1.174.283q-1.629-.774-3.25-1.566c-.374-.182-.624-.5-.462-.9C492.9,928.53,493.2,928.337,493.394,928.134Z" transform="translate(-489.467 -893.39)"/></g></svg>